HIERARCHY
ROOT Root
{
  OFFSET 0.0 0.0 0.0
  CHANNELS 6 Xposition Yposition Zposition Zrotation Yrotation Xrotation
  JOINT Hips
  {
    OFFSET 0.0 100.0 0.0
    CHANNELS 6 Xposition Yposition Zposition Zrotation Yrotation Xrotation
    JOINT Spine1
    {
      OFFSET 5.003913 -0.037094 -0.013727
      CHANNELS 3 Zrotation Yrotation Xrotation
      JOINT Spine2
      {
        OFFSET 7.125363 -1e-06 0.0
        CHANNELS 3 Zrotation Yrotation Xrotation
        JOINT Chest
        {
          OFFSET 7.594027 1e-06 0.0
          CHANNELS 3 Zrotation Yrotation Xrotation
          JOINT Neck1
          {
            OFFSET 26.313086 -0.460272 -0.181672
            CHANNELS 3 Zrotation Yrotation Xrotation
            JOINT Neck2
            {
              OFFSET 8.045911 0.0 0.0
              CHANNELS 3 Zrotation Yrotation Xrotation
              JOINT Head
              {
                OFFSET 6.432774 0.0 0.0
                CHANNELS 3 Zrotation Yrotation Xrotation
                JOINT HeadEnd
                {
                  OFFSET 16.169773 0.06451 0.00362
                  CHANNELS 3 Zrotation Yrotation Xrotation
                }
                JOINT Jaw
                {
                  OFFSET 0.108741 3.12938 0.002639
                  CHANNELS 3 Zrotation Yrotation Xrotation
                }
                JOINT LeftEye
                {
                  OFFSET 4.45173 8.166359 3.206392
                  CHANNELS 3 Zrotation Yrotation Xrotation
                }
                JOINT RightEye
                {
                  OFFSET 4.436895 8.135758 -3.222429
                  CHANNELS 3 Zrotation Yrotation Xrotation
                }
              }
            }
          }
          JOINT LeftShoulder
          {
            OFFSET 23.218927 5.195579 1.621656
            CHANNELS 3 Zrotation Yrotation Xrotation
            JOINT LeftArm
            {
              OFFSET 15.902118 2e-06 -2e-06
              CHANNELS 3 Zrotation Yrotation Xrotation
              JOINT LeftForeArm
              {
                OFFSET 28.739307 0.0 -1e-06
                CHANNELS 3 Zrotation Yrotation Xrotation
                JOINT LeftHand
                {
                  OFFSET 27.093981 -4e-06 0.0
                  CHANNELS 3 Zrotation Yrotation Xrotation
                  JOINT LeftHandThumb1
                  {
                    OFFSET 2.276781 3.380274 0.83384
                    CHANNELS 3 Zrotation Yrotation Xrotation
                    JOINT LeftHandThumb2
                    {
                      OFFSET 4.705309 -1e-06 -1e-06
                      CHANNELS 3 Zrotation Yrotation Xrotation
                      JOINT LeftHandThumb3
                      {
                        OFFSET 2.798515 0.0 3e-06
                        CHANNELS 3 Zrotation Yrotation Xrotation
                        JOINT LeftHandThumbEnd
                        {
                          OFFSET 3.180793 4e-06 -4e-06
                          CHANNELS 3 Zrotation Yrotation Xrotation
                        }
                      }
                    }
                  }
                  JOINT LeftHandIndex1
                  {
                    OFFSET 3.247786 2.352677 0.137192
                    CHANNELS 3 Zrotation Yrotation Xrotation
                    JOINT LeftHandIndex2
                    {
                      OFFSET 6.367095 1e-06 0.0
                      CHANNELS 3 Zrotation Yrotation Xrotation
                      JOINT LeftHandIndex3
                      {
                        OFFSET 3.662364 0.0 0.0
                        CHANNELS 3 Zrotation Yrotation Xrotation
                        JOINT LeftHandIndex4
                        {
                          OFFSET 2.329242 4e-06 -4e-06
                          CHANNELS 3 Zrotation Yrotation Xrotation
                          JOINT LeftHandIndexEnd
                          {
                            OFFSET 2.767823 1e-06 0.0
                            CHANNELS 3 Zrotation Yrotation Xrotation
                          }
                        }
                      }
                    }
                  }
                  JOINT LeftHandMiddle1
                  {
                    OFFSET 3.163612 0.945023 -0.406112
                    CHANNELS 3 Zrotation Yrotation Xrotation
                    JOINT LeftHandMiddle2
                    {
                      OFFSET 6.276789 3e-06 0.0
                      CHANNELS 3 Zrotation Yrotation Xrotation
                      JOINT LeftHandMiddle3
                      {
                        OFFSET 4.35652 -1e-06 4e-06
                        CHANNELS 3 Zrotation Yrotation Xrotation
                        JOINT LeftHandMiddle4
                        {
                          OFFSET 2.996877 0.0 8e-06
                          CHANNELS 3 Zrotation Yrotation Xrotation
                          JOINT LeftHandMiddleEnd
                          {
                            OFFSET 2.323256 3e-06 -4e-06
                            CHANNELS 3 Zrotation Yrotation Xrotation
                          }
                        }
                      }
                    }
                  }
                  JOINT LeftHandRing1
                  {
                    OFFSET 2.882606 -0.309162 0.107445
                    CHANNELS 3 Zrotation Yrotation Xrotation
                    JOINT LeftHandRing2
                    {
                      OFFSET 6.033198 0.0 4e-06
                      CHANNELS 3 Zrotation Yrotation Xrotation
                      JOINT LeftHandRing3
                      {
                        OFFSET 4.350578 3e-06 0.0
                        CHANNELS 3 Zrotation Yrotation Xrotation
                        JOINT LeftHandRing4
                        {
                          OFFSET 2.651321 2e-06 -7e-06
                          CHANNELS 3 Zrotation Yrotation Xrotation
                          JOINT LeftHandRingEnd
                          {
                            OFFSET 1.937663 1e-06 -4e-06
                            CHANNELS 3 Zrotation Yrotation Xrotation
                          }
                        }
                      }
                    }
                  }
                  JOINT LeftHandPinky1
                  {
                    OFFSET 2.865315 -1.525436 0.575687
                    CHANNELS 3 Zrotation Yrotation Xrotation
                    JOINT LeftHandPinky2
                    {
                      OFFSET 5.54936 1e-06 -8e-06
                      CHANNELS 3 Zrotation Yrotation Xrotation
                      JOINT LeftHandPinky3
                      {
                        OFFSET 3.070974 0.0 -4e-06
                        CHANNELS 3 Zrotation Yrotation Xrotation
                        JOINT LeftHandPinky4
                        {
                          OFFSET 1.549672 1e-06 0.0
                          CHANNELS 3 Zrotation Yrotation Xrotation
                          JOINT LeftHandPinkyEnd
                          {
                            OFFSET 1.952123 0.0 0.0
                            CHANNELS 3 Zrotation Yrotation Xrotation
                          }
                        }
                      }
                    }
                  }
                }
              }
            }
          }
          JOINT RightShoulder
          {
            OFFSET 23.161716 5.296122 -1.380114
            CHANNELS 3 Zrotation Yrotation Xrotation
            JOINT RightArm
            {
              OFFSET -16.027195 -2e-06 1.1e-05
              CHANNELS 3 Zrotation Yrotation Xrotation
              JOINT RightForeArm
              {
                OFFSET -28.736639 4e-06 2e-06
                CHANNELS 3 Zrotation Yrotation Xrotation
                JOINT RightHand
                {
                  OFFSET -27.133619 6e-06 0.0
                  CHANNELS 3 Zrotation Yrotation Xrotation
                  JOINT RightHandThumb1
                  {
                    OFFSET -2.274328 -3.351035 -0.83067
                    CHANNELS 3 Zrotation Yrotation Xrotation
                    JOINT RightHandThumb2
                    {
                      OFFSET -4.703594 -3e-06 2e-06
                      CHANNELS 3 Zrotation Yrotation Xrotation
                      JOINT RightHandThumb3
                      {
                        OFFSET -2.794935 -4e-06 -3e-06
                        CHANNELS 3 Zrotation Yrotation Xrotation
                        JOINT RightHandThumbEnd
                        {
                          OFFSET -3.183852 4e-06 1e-06
                          CHANNELS 3 Zrotation Yrotation Xrotation
                        }
                      }
                    }
                  }
                  JOINT RightHandIndex1
                  {
                    OFFSET -3.253496 -2.33755 -0.127667
                    CHANNELS 3 Zrotation Yrotation Xrotation
                    JOINT RightHandIndex2
                    {
                      OFFSET -6.344434 0.0 0.0
                      CHANNELS 3 Zrotation Yrotation Xrotation
                      JOINT RightHandIndex3
                      {
                        OFFSET -3.654871 0.0 -8e-06
                        CHANNELS 3 Zrotation Yrotation Xrotation
                        JOINT RightHandIndex4
                        {
                          OFFSET -2.327586 -1e-06 0.0
                          CHANNELS 3 Zrotation Yrotation Xrotation
                          JOINT RightHandIndexEnd
                          {
                            OFFSET -2.770001 3e-06 8e-06
                            CHANNELS 3 Zrotation Yrotation Xrotation
                          }
                        }
                      }
                    }
                  }
                  JOINT RightHandMiddle1
                  {
                    OFFSET -3.168223 -0.944764 0.411762
                    CHANNELS 3 Zrotation Yrotation Xrotation
                    JOINT RightHandMiddle2
                    {
                      OFFSET -6.266691 -1e-06 -4e-06
                      CHANNELS 3 Zrotation Yrotation Xrotation
                      JOINT RightHandMiddle3
                      {
                        OFFSET -4.348901 0.0 0.0
                        CHANNELS 3 Zrotation Yrotation Xrotation
                        JOINT RightHandMiddle4
                        {
                          OFFSET -3.00024 2e-06 -4e-06
                          CHANNELS 3 Zrotation Yrotation Xrotation
                          JOINT RightHandMiddleEnd
                          {
                            OFFSET -2.321477 -4e-06 -4e-06
                            CHANNELS 3 Zrotation Yrotation Xrotation
                          }
                        }
                      }
                    }
                  }
                  JOINT RightHandRing1
                  {
                    OFFSET -2.885654 0.293261 -0.119232
                    CHANNELS 3 Zrotation Yrotation Xrotation
                    JOINT RightHandRing2
                    {
                      OFFSET -6.032835 -1e-06 -4e-06
                      CHANNELS 3 Zrotation Yrotation Xrotation
                      JOINT RightHandRing3
                      {
                        OFFSET -4.33881 0.0 -4e-06
                        CHANNELS 3 Zrotation Yrotation Xrotation
                        JOINT RightHandRing4
                        {
                          OFFSET -2.654903 -4e-06 -4e-06
                          CHANNELS 3 Zrotation Yrotation Xrotation
                          JOINT RightHandRingEnd
                          {
                            OFFSET -1.935122 0.0 4e-06
                            CHANNELS 3 Zrotation Yrotation Xrotation
                          }
                        }
                      }
                    }
                  }
                  JOINT RightHandPinky1
                  {
                    OFFSET -2.866241 1.503904 -0.60527
                    CHANNELS 3 Zrotation Yrotation Xrotation
                    JOINT RightHandPinky2
                    {
                      OFFSET -5.553177 -2e-06 0.0
                      CHANNELS 3 Zrotation Yrotation Xrotation
                      JOINT RightHandPinky3
                      {
                        OFFSET -3.062664 -1e-06 -4e-06
                        CHANNELS 3 Zrotation Yrotation Xrotation
                        JOINT RightHandPinky4
                        {
                          OFFSET -1.546529 2e-06 4e-06
                          CHANNELS 3 Zrotation Yrotation Xrotation
                          JOINT RightHandPinkyEnd
                          {
                            OFFSET -1.952341 0.0 -4e-06
                            CHANNELS 3 Zrotation Yrotation Xrotation
                          }
                        }
                      }
                    }
                  }
                }
              }
            }
          }
        }
      }
    }
    JOINT LeftLeg
    {
      OFFSET -8.443107 2.567604 10.043214
      CHANNELS 3 Zrotation Yrotation Xrotation
      JOINT LeftShin
      {
        OFFSET 43.229198 1e-06 -1e-06
        CHANNELS 3 Zrotation Yrotation Xrotation
        JOINT LeftFoot
        {
          OFFSET 42.298611 1e-06 1e-06
          CHANNELS 3 Zrotation Yrotation Xrotation
          JOINT LeftToeBase
          {
            OFFSET 14.165858 1e-06 0.0
            CHANNELS 3 Zrotation Yrotation Xrotation
            JOINT LeftToeEnd
            {
              OFFSET 6.7141 -0.234461 0.0
              CHANNELS 3 Zrotation Yrotation Xrotation
            }
          }
        }
      }
    }
    JOINT RightLeg
    {
      OFFSET -8.303923 2.592729 -10.047278
      CHANNELS 3 Zrotation Yrotation Xrotation
      JOINT RightShin
      {
        OFFSET -43.369682 0.0 1e-06
        CHANNELS 3 Zrotation Yrotation Xrotation
        JOINT RightFoot
        {
          OFFSET -42.260784 4e-06 2e-06
          CHANNELS 3 Zrotation Yrotation Xrotation
          JOINT RightToeBase
          {
            OFFSET -14.222245 -2e-06 -1e-06
            CHANNELS 3 Zrotation Yrotation Xrotation
            JOINT RightToeEnd
            {
              OFFSET -6.660062 0.232574 -2e-06
              CHANNELS 3 Zrotation Yrotation Xrotation
            }
          }
        }
      }
    }
  }
}
MOTION
Frames: 4
Frame Time: 0.03333333333333333
0.0 0.0 0.0 0.0 -0.0 0.0 0.9302 95.776054 4.859252 90.646942 8.182138 89.525414 3.834841 0.535541 -0.362659 -10.094699 -0.595064 -1.001663 27.023481 0.154541 -3.238848 63.441822 -2.959483 1.126565 -2.615331 -0.85286 -0.364946 -29.984453 -4.323132 0.30361 5e-06 -0.0 -0.0 -0.02384 0.030991 -0.011391 0.065573 0.018924 0.001902 0.016012 0.044992 -0.018246 -104.596046 -78.369614 130.616943 60.88353 -44.954525 2.613422 24.937117 0.306111 0.039544 -2.582177 6.188779 4.772711 17.636627 -26.322733 52.41119 -19.466661 -14.3956 29.410389 -1e-06 -8.774821 -2e-06 16.302271 -18.117916 6.004977 -0.609776 -1.795653 -3.889327 -4.807087 -11.046806 -2.937849 7e-06 -20.976011 1e-06 -5.019967 -25.033545 -4.031878 6e-06 -0.0 2e-06 -10.634533 -5.686967 -3.565587 10.573277 -17.922947 -3.113901 4e-06 -13.821205 2e-06 -0.501778 -31.181498 -4.027009 -11.632068 -59.885971 7.585877 -13.982712 -7.150194 -2.87504 13.77273 -8.401491 -3.218243 0.347736 -34.211544 0.771658 -0.963028 -17.733366 2.621022 1e-06 2e-06 -0.0 -17.346413 -20.095209 -4.201781 21.757555 -1.638377 3.866428 2e-06 -6.338822 0.0 -1.697587 -22.591742 -6.194005 0.0 -5e-06 -3e-06 48.597717 -78.729462 159.579819 58.37756 -45.560501 -12.439647 27.934929 -0.310648 -0.016753 -4.657133 7.639306 4.439126 22.182114 -20.375898 49.933327 -16.701817 -16.74353 28.476534 -4e-06 -12.690601 -1e-06 16.16984 -17.840815 2.576739 -0.105918 -1.513855 -4.275881 -5.039041 -5.61287 -2.953557 5e-06 -11.02052 -3e-06 -6.111296 -15.895328 -3.840469 1e-06 -0.0 -2e-06 -10.28337 -5.680286 -4.341839 11.028296 -11.302403 -2.372633 -1.384268 -14.238577 -6.32012 -0.625436 -26.924185 -3.827598 -3.871686 -49.872276 -4.19321 -13.708524 -7.363474 -3.72094 18.14115 -14.052739 -3.242677 7e-06 -18.787266 -2e-06 -0.429713 -8.456043 2.555505 1e-06 -0.0 -1e-06 -15.923531 -20.094479 -5.473588 30.41921 -7.190827 1.735927 4e-06 -8.162922 0.0 -1.861901 -22.861467 -6.167942 1e-06 -2e-06 -3e-06 170.043991 -7.094375 -6.060882 36.437164 -0.04858 0.092773 -87.253952 10.004917 -4.969028 -11.062593 1.611498 1.982923 -1.0 -0.0 0.0 -10.601643 -7.640834 -9.891865 38.526417 0.067951 0.117949 -87.927704 1.0413 -8.410817 -10.312559 0.82101 1.567615 -1.000002 -0.0 -0.0 
0.0 0.0 0.0 0.0 -0.0 0.0 0.943639 95.86338 4.872111 90.373169 7.935013 89.272987 3.976967 0.589966 -0.428522 -10.083691 -0.558124 -0.933975 27.100937 0.188414 -3.282627 63.4408 -3.214082 1.064856 -2.593129 -0.811362 -0.374907 -29.941727 -4.23424 0.232453 5e-06 -0.0 -0.0 -0.030199 0.00861 0.001923 0.075938 -0.004206 0.018236 0.033384 0.022524 -0.007937 -103.797318 -78.468636 129.927505 61.19495 -44.852386 2.292265 24.926838 0.29137 0.013375 -2.365709 6.304661 4.913371 17.636633 -26.322735 52.411201 -19.466663 -14.395598 29.410393 -0.0 -8.774822 -2e-06 16.271729 -18.080816 6.003293 -0.609777 -1.795653 -3.88933 -4.80709 -11.046813 -2.937849 3e-06 -20.976021 1e-06 -5.019973 -25.033564 -4.031882 8e-06 0.0 0.0 -10.634536 -5.686972 -3.565588 10.573272 -17.922951 -3.1139 2e-06 -13.821209 2e-06 -0.501782 -31.181511 -4.027013 -11.485324 -59.896881 7.521472 -13.982716 -7.150199 -2.875042 13.772731 -8.401493 -3.21824 0.34773 -34.211559 0.771656 -0.96303 -17.733372 2.62102 1e-06 1e-06 0.0 -17.346424 -20.095222 -4.20178 21.757561 -1.638374 3.866432 1e-06 -6.338826 0.0 -1.69759 -22.591751 -6.194009 1e-06 -5e-06 -4e-06 48.808449 -78.72805 159.358047 58.606979 -45.683144 -13.07076 28.118725 -0.426698 -0.038009 -4.282865 8.032732 4.330507 22.182119 -20.375891 49.933315 -16.701815 -16.74353 28.476526 -1e-06 -12.690602 -3e-06 16.146826 -17.790026 2.562329 -0.105919 -1.513856 -4.275881 -5.039042 -5.612871 -2.953555 3e-06 -11.020523 -5e-06 -6.1113 -15.895332 -3.84047 -0.0 1e-06 1e-06 -10.283371 -5.680289 -4.341836 11.028296 -11.302405 -2.372633 -1.384271 -14.238581 -6.320121 -0.625441 -26.924191 -3.827599 -3.865568 -49.943802 -4.11574 -13.708526 -7.363479 -3.720937 18.141151 -14.052739 -3.242676 4e-06 -18.78727 -2e-06 -0.429712 -8.456048 2.555506 1e-06 2e-06 -0.0 -15.923538 -20.094484 -5.473582 30.41921 -7.190823 1.735928 2e-06 -8.162925 -1e-06 -1.861905 -22.861467 -6.167945 0.0 -3e-06 -2e-06 169.900177 -7.38416 -6.094075 36.299797 -0.028492 0.137992 -87.208504 9.849975 -5.127403 -11.228685 1.595279 1.973804 -0.999998 0.0 -0.0 -10.69201 -7.252375 -9.714873 38.073544 0.076641 0.11561 -87.656235 0.929818 -8.432901 -10.483066 0.837551 1.571843 -1.000003 0.0 0.0 
0.0 0.0 0.0 0.0 -0.0 0.0 0.927273 95.935318 4.8726 90.101738 7.62398 89.009415 4.126059 0.643851 -0.470616 -10.066908 -0.54018 -0.908026 27.243073 0.238697 -3.286402 63.467793 -3.55904 1.016833 -2.596708 -0.770955 -0.468456 -29.857254 -4.211529 0.189841 7e-06 -0.0 0.0 -0.031569 0.001034 0.006907 0.054692 -0.011587 0.01969 0.015519 0.01423 -0.000466 -102.999214 -78.591515 129.221573 61.563099 -44.713882 2.180691 25.096504 0.336881 0.010725 -2.120582 6.330883 4.858803 17.636629 -26.322729 52.411194 -19.466656 -14.395596 29.410385 -0.0 -8.77482 -3e-06 16.279797 -18.096764 6.006677 -0.609777 -1.795653 -3.889328 -4.807088 -11.046809 -2.937852 5e-06 -20.976015 2e-06 -5.019969 -25.033552 -4.031879 5e-06 -1e-06 1e-06 -10.634532 -5.686969 -3.565587 10.573272 -17.922947 -3.113899 3e-06 -13.821203 2e-06 -0.501777 -31.181498 -4.027011 -11.461843 -59.872276 7.484662 -13.982712 -7.150197 -2.875041 13.77273 -8.401491 -3.21824 0.347735 -34.211544 0.771656 -0.963031 -17.73337 2.621021 1e-06 0.0 1e-06 -17.346415 -20.095213 -4.201783 21.757557 -1.638376 3.866431 1e-06 -6.338822 -1e-06 -1.697588 -22.59174 -6.194006 2e-06 -6e-06 -3e-06 48.786301 -78.753654 159.292389 58.821175 -45.78154 -13.555895 28.23723 -0.497963 -0.054337 -3.882868 8.380694 4.190085 22.182117 -20.375895 49.933319 -16.701811 -16.743528 28.476526 -4e-06 -12.690598 -1e-06 16.093933 -17.716383 2.568654 -0.105919 -1.513856 -4.275882 -5.03904 -5.612869 -2.953554 5e-06 -11.02052 -4e-06 -6.111296 -15.89533 -3.84047 -0.0 1e-06 1e-06 -10.283369 -5.680286 -4.34184 11.028294 -11.302405 -2.372635 -1.38427 -14.238579 -6.32012 -0.62544 -26.924187 -3.827599 -3.849199 -49.912132 -4.078157 -13.70852 -7.363472 -3.72094 18.141146 -14.052739 -3.242674 7e-06 -18.787268 -1e-06 -0.42971 -8.456046 2.555506 -1e-06 4e-06 1e-06 -15.923532 -20.094481 -5.473588 30.41921 -7.190827 1.735929 4e-06 -8.162924 -1e-06 -1.861901 -22.861469 -6.167941 -0.0 -2e-06 -2e-06 169.646881 -7.688586 -6.118779 36.229801 -0.027948 0.16362 -87.185028 9.67649 -5.213984 -11.326259 1.579304 1.968217 -0.999999 0.0 -0.0 -10.899167 -6.854252 -9.534116 37.701252 0.090055 0.102706 -87.410851 0.779192 -8.499561 -10.521788 0.855179 1.572475 -1.000003 1e-06 -0.0 
0.0 0.0 0.0 0.0 -0.0 0.0 0.883958 96.037491 4.862149 89.797279 7.240965 88.740372 4.280114 0.717135 -0.496417 -10.054534 -0.522549 -0.900775 27.389309 0.293353 -3.25959 63.477219 -3.958168 0.986569 -2.60565 -0.757595 -0.591137 -29.824118 -4.202157 0.166834 4e-06 -0.0 -0.0 -0.030028 -0.005434 0.0108 0.031682 -0.017457 0.018342 -0.008081 0.007108 0.007326 -102.21727 -78.696953 128.500061 62.009907 -44.591957 2.137383 25.303652 0.400925 0.02794 -1.882034 6.338351 4.934847 17.636639 -26.322737 52.411201 -19.466663 -14.395598 29.410393 0.0 -8.774822 -4e-06 16.270897 -18.110725 6.011862 -0.609776 -1.795653 -3.889328 -4.807089 -11.046811 -2.937851 4e-06 -20.976019 4e-06 -5.01997 -25.03356 -4.03188 5e-06 -2e-06 -1e-06 -10.634535 -5.68697 -3.56559 10.573276 -17.922955 -3.113899 3e-06 -13.821211 2e-06 -0.501778 -31.181511 -4.027014 -11.459086 -59.826084 7.458899 -13.982715 -7.150198 -2.875042 13.772731 -8.401493 -3.218241 0.347736 -34.211555 0.771654 -0.96303 -17.733368 2.621022 1e-06 1e-06 -1e-06 -17.346422 -20.095217 -4.201784 21.757561 -1.638377 3.866431 2e-06 -6.338824 -0.0 -1.697588 -22.591743 -6.194006 1e-06 -6e-06 -3e-06 48.715591 -78.812973 159.244232 59.066494 -45.825317 -13.659755 28.238932 -0.484707 -0.051073 -3.563672 8.529832 4.071573 22.182114 -20.375895 49.933315 -16.701807 -16.743525 28.476519 -3e-06 -12.690598 -0.0 16.047033 -17.650742 2.587924 -0.105919 -1.513855 -4.275884 -5.03904 -5.612871 -2.953554 4e-06 -11.020523 -2e-06 -6.111297 -15.895332 -3.840472 0.0 -0.0 1e-06 -10.283369 -5.680286 -4.341838 11.028293 -11.302404 -2.372634 -1.384269 -14.238579 -6.320119 -0.625438 -26.924191 -3.827601 -3.854492 -49.845249 -4.044197 -13.708523 -7.363473 -3.720938 18.141146 -14.052736 -3.242675 5e-06 -18.787268 -1e-06 -0.429712 -8.456043 2.555504 1e-06 1e-06 -0.0 -15.923534 -20.094482 -5.473584 30.419201 -7.190823 1.735928 3e-06 -8.162925 -3e-06 -1.861902 -22.861469 -6.167944 1e-06 -5e-06 -2e-06 169.35791 -8.03613 -6.124814 36.059868 -0.035617 0.178262 -87.097237 9.469598 -5.332973 -11.402839 1.57077 1.960571 -1.0 0.0 0.0 -11.125401 -6.371508 -9.329843 37.194851 0.100709 0.079599 -87.086014 0.560187 -8.583025 -10.524576 0.855158 1.568118 -1.000003 -1e-06 -0.0 
